<svg width="180" height="160" xmlns="http://www.w3.org/2000/svg">
 <!-- Created with Method Draw - http://github.com/duopixel/Method-Draw/ -->
 <defs>
  <filter id="svg_24_blur">
   <feGaussianBlur stdDeviation="0" in="SourceGraphic"/>
  </filter>
 </defs>
 <g>
  <title>background</title>
  <rect fill="#ffffff" id="canvas_background" height="162" width="182" y="-1" x="-1"/>
  <g display="none" overflow="visible" y="0" x="0" height="100%" width="100%" id="canvasGrid">
   <rect fill="url(#gridpattern)" stroke-width="0" y="0" x="0" height="100%" width="100%"/>
  </g>
 </g>
 <g>
  <title>Layer 1</title>
  <ellipse ry="10" rx="6.8" id="right_ear" cy="83.5" cx="158.75" fill-opacity="null" stroke-opacity="null" stroke-width="1" stroke="#000" fill="#9f5000"/>
  <ellipse ry="10" rx="6.8" id="left_ear" cy="84.5" cx="27.25" fill-opacity="null" stroke-opacity="null" stroke-width="1" stroke="#000" fill="#9f5000"/>

  <ellipse stroke="#000" ry="52.5" rx="62.499999" id="face" cy="84.500018" cx="93.000261" fill-opacity="null" stroke-opacity="null" stroke-width="1.5" fill="#9f5000"/>

  
  <path d="M92 45  A 51 40 0 0 1 92 130" stroke="black" fill="green" stroke-width="2" fill-opacity="1"/>
  <path d="M92 130  A 51 40 0 0 1 92 45" stroke="black" fill="yellow" stroke-width="2" fill-opacity="1"/>
  <ellipse stroke="#000" ry="15.81" rx="17.5" id="big_eye1" cy="83.31" cx="74.5" fill-opacity="null" stroke-opacity="null" stroke-width="1.5" fill="#ff0000"/>
  <ellipse stroke="#000" ry="15.81" rx="17" id="big_ete2" cy="82.81" cx="109" fill-opacity="null" stroke-opacity="null" stroke-width="1.5" fill="#ff0000"/>
  <path stroke="#000" id="nose" d="m90.583603,91.500015l-4.583344,15.692291c0,0 11,1.307709 11,1.307709c0,0 -6.416656,-17 -6.416656,-17z" fill-opacity="null" stroke-opacity="null" stroke-width="0.1" fill="#9f5000"/>
  <line stroke="#000" stroke-linecap="null" stroke-linejoin="null" id="mandn" y2="114.5" x2="92" y1="95.5" x1="91" opacity="0.5" fill-opacity="null" stroke-opacity="null" stroke-width="1.5" fill="9f5000"/>
  <path id="mouth" d="m69.000259,108.500015l10,6l13,2c0,0 16,-2 16,-2c0,0 7,-6 7,-6" fill-opacity="null" stroke-opacity="null" stroke-width="1.5" stroke="#000" fill="none"/>
  <ellipse filter="url(#svg_24_blur)" canvas-opacity="1" stroke="#000" ry="9" rx="10" id="middle_eye1" cy="81.500022" cx="76.500263" fill-opacity="null" stroke-opacity="null" stroke-width="2.5" fill="ff0000"/>
  <ellipse filter="url(#svg_24_blur)" canvas-opacity="1" stroke="#000" ry="9" rx="10" id="middle_eye2" cy="81.500022" cx="108.000237" fill-opacity="null" stroke-opacity="null" stroke-width="2.5" fill="ff0000"/>
  <ellipse rx="0.25" id="svg_26" cy="82" cx="81.75" fill-opacity="null" stroke-opacity="null" stroke-width="2.5" stroke="#000" fill="#9f5000"/>
  <ellipse stroke="#000" rx="5" id="svg_27" cy="82.000116" cx="86.5" fill-opacity="null" stroke-opacity="null" stroke-width="2.5" fill="#9f5000"/>
  <ellipse stroke="#000" ry="2.25" rx="2.45" id="small_eye1" cy="80.75" cx="79.5" fill-opacity="null" stroke-opacity="null" stroke-width="0.1" fill="white"/>
  <ellipse stroke="#000" ry="2.25" rx="2.25" id="small_eye2" cy="80.75" cx="104.75" fill-opacity="null" stroke-opacity="null" stroke-width="0.1" fill="white"/>
  <ellipse ry="17.25" rx="17.25" id="sai" cy="126.25" cx="49.25" fill-opacity="null" stroke-opacity="null" stroke-width="1.5" stroke="#000" fill="#9f5000"/>
  <ellipse ry="17.25" rx="17.25" id="sai" cy="122.250082" cx="134.25" fill-opacity="null" stroke-opacity="null" stroke-width="1.5" stroke="#000" fill="#9f5000"/>
  <line stroke="#000" stroke-linecap="null" stroke-linejoin="null" id="svg_33" y2="69.5" x2="63" y1="64.5" x1="58" fill-opacity="null" stroke-opacity="null" stroke-width="1.5" fill="none"/>
  <line stroke="#000" stroke-linecap="null" stroke-linejoin="null" id="svg_35" y2="65.500131" x2="68.5" y1="60" x1="64" fill-opacity="null" stroke-opacity="null" stroke-width="1.5" fill="none"/>
  <line stroke-linecap="null" stroke-linejoin="null" id="svg_36" y2="67" x2="72.0002" y1="60.5" x1="72" fill-opacity="null" stroke-opacity="null" stroke-width="1.5" stroke="#000" fill="none"/>
  <line stroke="#000" stroke-linecap="null" stroke-linejoin="null" id="svg_37" y2="66.5" x2="78" y1="59.5" x1="81.5" fill-opacity="null" stroke-opacity="null" stroke-width="1.5" fill="none"/>
  <line stroke-linecap="null" stroke-linejoin="null" id="svg_38" y2="74" x2="60.5" y1="72" x1="55.5" fill-opacity="null" stroke-opacity="null" stroke-width="1.5" stroke="#000" fill="none"/>
  <line stroke-linecap="null" stroke-linejoin="null" id="svg_39" y2="68" x2="111" y1="62" x1="110.5" fill-opacity="null" stroke-opacity="null" stroke-width="1.5" stroke="#000" fill="none"/>
  <line stroke-linecap="null" stroke-linejoin="null" id="svg_40" y2="68" x2="116.5" y1="63" x1="121" fill-opacity="null" stroke-opacity="null" stroke-width="1.5" stroke="#000" fill="none"/>
  <line stroke="#000" transform="rotate(-30.457443237304688 124.7219085693359,70.15133666992188) " stroke-linecap="null" stroke-linejoin="null" id="svg_41" y2="71.401333" x2="121.157885" y1="68.901336" x1="128.285923" fill-opacity="null" stroke-opacity="null" stroke-width="1.5" fill="none"/>
  <line stroke="#000" stroke-linecap="null" stroke-linejoin="null" id="svg_43" y2="69.5" x2="63" y1="64.5" x1="58" fill-opacity="null" stroke-opacity="null" stroke-width="1.5" fill="none"/>
  <line stroke-linecap="null" stroke-linejoin="null" id="svg_45" y2="74.5" x2="132" y1="77" x1="126" fill-opacity="null" stroke-opacity="null" stroke-width="1.5" stroke="#000" fill="none"/>
  <line stroke="#000" stroke-linecap="null" stroke-linejoin="null" id="svg_46" y2="82.5" x2="135" y1="81" x1="127.5" fill-opacity="null" stroke-opacity="null" stroke-width="1.5" fill="none"/>
  <ellipse stroke="#000" transform="rotate(12.025 95.213,39.151) " ry="28.4" rx="16.5" id="svg_8" cy="39" cx="95" fill-opacity="null" stroke-opacity="null" stroke-width="1.5" fill="#9f5000"/>
 </g>
</svg>